<svg width="122" height="122" viewBox="0 0 122 122" fill="none" xmlns="http://www.w3.org/2000/svg">
<path fill-rule="evenodd" clip-rule="evenodd" d="M110.69 6.67167C107.01 2.99255 102.019 0.925735 96.8154 0.925735C91.6116 0.925735 86.6208 2.99255 82.9405 6.67167L78.3156 11.3032L110.697 43.6844L115.315 39.0595C117.138 37.2371 118.584 35.0735 119.57 32.6922C120.557 30.311 121.064 27.7588 121.064 25.1813C121.064 22.6038 120.557 20.0516 119.57 17.6704C118.584 15.2892 117.138 13.1256 115.315 11.3032L110.69 6.67167ZM101.44 52.9343L69.0591 20.5531L9.59536 80.0234C8.29411 81.3249 7.3851 82.9661 6.97215 84.7595L0.240777 113.903C-0.0100375 114.985 0.018732 116.113 0.324374 117.18C0.630016 118.248 1.20247 119.22 1.98779 120.006C2.77311 120.791 3.74544 121.363 4.81317 121.669C5.88089 121.975 7.00886 122.003 8.09078 121.753L37.2404 115.028C39.0316 114.614 40.6704 113.705 41.9701 112.405L101.44 52.9343Z" fill="black"/>
</svg>
