<svg width="63" height="50" viewBox="0 0 63 50" fill="none" xmlns="http://www.w3.org/2000/svg">
<path d="M24.1913 20.0875C22.5981 19.6767 21.0766 19.3266 19.6268 19.0372C19.0294 17.3638 18.7278 15.6188 18.7326 13.8639C18.7326 6.20726 24.2941 0 31.1548 0C38.0154 0 43.5716 6.20142 43.5716 13.8593C43.5757 15.5318 43.302 17.1958 42.7592 18.798C40.9551 19.1325 39.0331 19.5624 36.9933 20.0875C34.0918 20.8367 31.7456 21.5789 30.589 21.9606C29.4389 21.5789 27.0927 20.8367 24.1913 20.0875ZM7.31672 30C5.87786 30 4.47131 30.3776 3.27496 31.0849C2.07861 31.7923 1.14619 32.7977 0.595625 33.974C0.0450567 35.1503 -0.0989299 36.4447 0.181874 37.6934C0.462677 38.9421 1.15566 40.0891 2.17318 40.9893C3.1907 41.8895 4.48705 42.5025 5.8983 42.7508C7.30954 42.999 8.77229 42.8714 10.1015 42.384C11.4308 41.8966 12.5669 41.0713 13.3661 40.0126C14.1653 38.9539 14.5917 37.7092 14.5914 36.436C14.5911 34.729 13.8245 33.0919 12.4603 31.885C11.096 30.678 9.24587 30 7.31672 30ZM54.7673 30C53.3284 30 51.9219 30.3776 50.7255 31.0849C49.5292 31.7923 48.5967 32.7977 48.0462 33.974C47.4956 35.1503 47.3516 36.4447 47.6324 37.6934C47.9132 38.9421 48.6062 40.0891 49.6237 40.9893C50.6413 41.8895 51.9376 42.5025 53.3489 42.7508C54.7601 42.999 56.2228 42.8714 57.5521 42.384C58.8814 41.8966 60.0174 41.0713 60.8166 40.0126C61.6158 38.9539 62.0423 37.7092 62.042 36.436C62.0416 34.7292 61.2752 33.0923 59.9113 31.8854C58.5473 30.6785 56.6975 30.0003 54.7686 30H54.7673ZM45.3837 36.436C45.3857 34.8304 45.9131 33.2597 46.9022 31.9136C47.8912 30.5675 49.2996 29.5036 50.9571 28.8505V19.8004C42.4519 19.8004 30.589 23.9596 30.589 23.9596C30.589 23.9596 18.726 19.8004 10.2208 19.8004V28.5436C12.1034 29.0864 13.7437 30.1423 14.9068 31.5601C16.07 32.978 16.6964 34.6851 16.6964 36.4372C16.6964 38.1892 16.07 39.8963 14.9068 41.3142C13.7437 42.732 12.1034 43.7879 10.2208 44.3307V45.1476C18.726 45.1476 30.589 50 30.589 50C30.589 50 42.4572 45.1511 50.9571 45.1511V44.0215C49.2996 43.3683 47.8912 42.3045 46.9022 40.9584C45.9131 39.6123 45.3857 38.0416 45.3837 36.436Z" fill="black"/>
</svg>
