<svg width="24" height="24" viewBox="0 0 24 24" fill="none" xmlns="http://www.w3.org/2000/svg">
<path d="M17.73 12.462C17.872 12.462 17.991 12.414 18.087 12.318C18.183 12.222 18.231 12.103 18.231 11.961C18.231 11.819 18.183 11.7003 18.087 11.605C17.991 11.5097 17.8723 11.462 17.731 11.462H14.654C14.512 11.462 14.3933 11.51 14.298 11.606C14.2027 11.702 14.1547 11.8207 14.154 11.962C14.1533 12.1033 14.2013 12.222 14.298 12.318C14.3947 12.414 14.5133 12.462 14.654 12.462H17.73ZM17.73 9.692C17.872 9.692 17.991 9.644 18.087 9.548C18.183 9.45267 18.231 9.334 18.231 9.192C18.231 9.05 18.183 8.93133 18.087 8.836C17.991 8.74067 17.8723 8.69267 17.731 8.692H14.654C14.512 8.692 14.3933 8.74 14.298 8.836C14.2027 8.932 14.1547 9.051 14.154 9.193C14.1533 9.335 14.2013 9.45367 14.298 9.549C14.3947 9.64433 14.5133 9.692 14.654 9.692H17.73ZM9.077 13.308C8.52833 13.308 8.06367 13.346 7.683 13.422C7.30167 13.498 6.96 13.6207 6.658 13.79C6.398 13.93 6.20167 14.0827 6.069 14.248C5.93633 14.4133 5.87033 14.591 5.871 14.781C5.871 14.931 5.93167 15.0563 6.053 15.157C6.17367 15.257 6.32167 15.307 6.497 15.307H11.667C11.8417 15.307 11.988 15.2523 12.106 15.143C12.224 15.0337 12.283 14.9027 12.283 14.75C12.283 14.582 12.22 14.4193 12.094 14.262C11.968 14.1047 11.7687 13.9473 11.496 13.79C11.1933 13.6207 10.8517 13.498 10.471 13.422C10.0903 13.346 9.62567 13.308 9.077 13.308ZM9.077 11.692C9.499 11.692 9.85433 11.5477 10.143 11.259C10.4323 10.9697 10.577 10.614 10.577 10.192C10.577 9.77 10.4323 9.41467 10.143 9.126C9.85367 8.83733 9.49833 8.69267 9.077 8.692C8.65567 8.69133 8.30033 8.836 8.011 9.126C7.72167 9.416 7.577 9.77133 7.577 10.192C7.577 10.6127 7.72167 10.9683 8.011 11.259C8.30033 11.5497 8.65567 11.694 9.077 11.692ZM4.616 19C4.15533 19 3.771 18.846 3.463 18.538C3.155 18.23 3.00067 17.8453 3 17.384V6.616C3 6.15533 3.15433 5.771 3.463 5.463C3.77167 5.155 4.15567 5.00067 4.615 5H19.385C19.845 5 20.229 5.15433 20.537 5.463C20.845 5.77167 20.9993 6.156 21 6.616V17.385C21 17.845 20.8457 18.2293 20.537 18.538C20.2283 18.8467 19.8443 19.0007 19.385 19H4.616Z" fill="#B3B3B3"/>
</svg>
