<svg width="21" height="22" viewBox="0 0 21 22" fill="none" xmlns="http://www.w3.org/2000/svg">
<g clip-path="url(#clip0_120_680)">
<path d="M9.47058 13.8823C9.93471 13.8823 10.3798 13.6979 10.708 13.3698C11.0362 13.0416 11.2206 12.5965 11.2206 12.1323C11.2206 11.6682 11.0362 11.2231 10.708 10.8949C10.3798 10.5667 9.93471 10.3823 9.47058 10.3823C9.00645 10.3823 8.56133 10.5667 8.23314 10.8949C7.90496 11.2231 7.72058 11.6682 7.72058 12.1323C7.72058 12.5965 7.90496 13.0416 8.23314 13.3698C8.56133 13.6979 9.00645 13.8823 9.47058 13.8823ZM14.7206 6.00732C15.1847 6.00732 15.6298 6.1917 15.958 6.51989C16.2862 6.84808 16.4706 7.2932 16.4706 7.75732V16.5073C16.4706 16.9715 16.2862 17.4166 15.958 17.7448C15.6298 18.0729 15.1847 18.2573 14.7206 18.2573H4.22058C3.75645 18.2573 3.31133 18.0729 2.98314 17.7448C2.65496 17.4166 2.47058 16.9715 2.47058 16.5073V7.75732C2.47058 7.2932 2.65496 6.84808 2.98314 6.51989C3.31133 6.1917 3.75645 6.00732 4.22058 6.00732H5.09558V4.25732C5.09558 3.097 5.55652 1.9842 6.37699 1.16373C7.19746 0.34326 8.31026 -0.117676 9.47058 -0.117676C10.0451 -0.117676 10.614 -0.00451304 11.1448 0.215351C11.6756 0.435216 12.1579 0.757476 12.5642 1.16373C12.9704 1.56999 13.2927 2.05228 13.5126 2.58308C13.7324 3.11388 13.8456 3.68279 13.8456 4.25732V6.00732H14.7206ZM9.47058 1.63232C8.77439 1.63232 8.10671 1.90889 7.61443 2.40117C7.12214 2.89345 6.84558 3.56113 6.84558 4.25732V6.00732H12.0956V4.25732C12.0956 3.56113 11.819 2.89345 11.3267 2.40117C10.8345 1.90889 10.1668 1.63232 9.47058 1.63232Z" fill="#B3B3B3"/>
</g>
<defs>
<clipPath id="clip0_120_680">
<rect width="21" height="21" fill="white" transform="translate(0 0.5)"/>
</clipPath>
</defs>
</svg>
